<svg xmlns="http://www.w3.org/2000/svg" viewBox="0 0 361.5 52.58"><defs><style>.cls-1{fill:#188db5;}.cls-2{fill:#20a9ce;}</style></defs><title>logo-vector</title><g id="Calque_2" data-name="Calque 2"><g id="Calque_1-2" data-name="Calque 1"><path class="cls-1" d="M54.51,17.26a8.37,8.37,0,0,1-3.11.55c-4,0-6.45-2.92-6.45-7.58s2.44-7.54,6.45-7.54a8.24,8.24,0,0,1,3.07.48l.92.31a.21.21,0,0,1,.15.27L55,5.38a.21.21,0,0,1-.27.15l-.94-.31a7.15,7.15,0,0,0-2.37-.36c-2.54,0-4,2-4,5.38s1.49,5.4,4,5.4a6.65,6.65,0,0,0,2.39-.38l.92-.31a.23.23,0,0,1,.29.15l.57,1.57a.2.2,0,0,1-.15.29Z"/><path class="cls-1" d="M71.39,10.23c0,4.66-2.44,7.58-6.38,7.58s-6.38-2.92-6.38-7.58S61,2.69,65,2.69,71.39,5.59,71.39,10.23ZM61,10.23c0,3.36,1.47,5.4,4,5.4s3.95-2,3.95-5.4S67.49,4.85,65,4.85,61,6.85,61,10.23Z"/><path class="cls-1" d="M87,17.35a.21.21,0,0,1-.23.23H84.2a.3.3,0,0,1-.27-.17,19,19,0,0,0-1.09-2.16L78.34,7.83c-.27-.48-.52-1-.73-1.41-.13-.23-.34-.15-.29.08a20.65,20.65,0,0,1,.19,2.92v7.92a.21.21,0,0,1-.23.23H75.34a.21.21,0,0,1-.23-.23V3.13a.21.21,0,0,1,.23-.23h2.52a.3.3,0,0,1,.27.17,23.26,23.26,0,0,0,1.11,2.16l4.49,7.41c.27.5.52,1,.73,1.41s.31.17.27-.08a17.54,17.54,0,0,1-.17-2.88v-8a.21.21,0,0,1,.23-.23h1.91a.21.21,0,0,1,.23.23Z"/><path class="cls-1" d="M94.47,10.75C91.89,9.79,91,8.7,91,6.66c0-2.52,1.93-4,5-4a10.49,10.49,0,0,1,3.28.52l1.22.4c.15.06.21.17.15.29L100,5.5a.23.23,0,0,1-.29.15l-1.11-.36a8.76,8.76,0,0,0-2.67-.44c-1.51,0-2.54.71-2.54,1.81,0,.86.52,1.47,2,2l2.33.86c2.46.92,3.57,2,3.57,4.05,0,2.71-2,4.2-5.27,4.2A11.63,11.63,0,0,1,92,17.09l-1.09-.36c-.15-.06-.21-.17-.15-.29l.55-1.62c.06-.13.17-.19.29-.13l1.15.38a10.24,10.24,0,0,0,3.3.55c1.55,0,2.86-.59,2.86-2,0-.92-.9-1.53-2.08-2Z"/><path class="cls-1" d="M116.12,11.68c0,3.88-2.08,6.13-5.65,6.13s-5.65-2.25-5.65-6.13V3.13a.21.21,0,0,1,.23-.23H107a.21.21,0,0,1,.23.23v8.55c0,2.52,1.2,3.95,3.28,3.95s3.25-1.43,3.25-3.95V3.13A.21.21,0,0,1,114,2.9h1.93a.21.21,0,0,1,.23.23Z"/><path class="cls-1" d="M129.23,15.46a.21.21,0,0,1,.23.23v1.66a.21.21,0,0,1-.23.23h-8.8a.21.21,0,0,1-.23-.23V3.13a.21.21,0,0,1,.23-.23h1.91a.21.21,0,0,1,.23.23V15.46Z"/><path class="cls-1" d="M142.37,4.79a.21.21,0,0,1-.23.23h-4.47V17.35a.21.21,0,0,1-.23.23h-1.93a.21.21,0,0,1-.23-.23V5h-4.45a.21.21,0,0,1-.23-.23V3.13a.21.21,0,0,1,.23-.23h11.32a.21.21,0,0,1,.23.23Z"/><path class="cls-1" d="M146.32,14.76l-1,2.62a.25.25,0,0,1-.25.19h-2c-.19,0-.25-.1-.19-.27l3.61-9.22a48.9,48.9,0,0,0,1.62-5,.22.22,0,0,1,.25-.21h2.58a.22.22,0,0,1,.25.19c.44,1.66,1,3.32,1.64,5l3.61,9.22c.06.17,0,.27-.19.27h-2a.25.25,0,0,1-.25-.19l-1-2.62Zm5.77-2.12L151,9.89A29.43,29.43,0,0,1,149.79,6c-.06-.23-.29-.23-.34,0a27.7,27.7,0,0,1-1.22,3.88l-1.09,2.75Z"/><path class="cls-1" d="M168.64,4.79a.21.21,0,0,1-.23.23h-4.47V17.35a.21.21,0,0,1-.23.23h-1.93a.21.21,0,0,1-.23-.23V5h-4.45a.21.21,0,0,1-.23-.23V3.13a.21.21,0,0,1,.23-.23h11.32a.21.21,0,0,1,.23.23Z"/><path class="cls-1" d="M174.5,17.35a.21.21,0,0,1-.23.23h-1.91a.21.21,0,0,1-.23-.23V3.13a.21.21,0,0,1,.23-.23h1.91a.21.21,0,0,1,.23.23Z"/><path class="cls-1" d="M191,10.23c0,4.66-2.44,7.58-6.38,7.58s-6.38-2.92-6.38-7.58,2.41-7.54,6.38-7.54S191,5.59,191,10.23Zm-10.35,0c0,3.36,1.47,5.4,4,5.4s3.95-2,3.95-5.4-1.47-5.38-3.95-5.38S180.66,6.85,180.66,10.23Z"/><path class="cls-1" d="M206.57,17.35a.21.21,0,0,1-.23.23h-2.52a.3.3,0,0,1-.27-.17,19,19,0,0,0-1.09-2.16L198,7.83c-.27-.48-.52-1-.73-1.41-.13-.23-.34-.15-.29.08a20.65,20.65,0,0,1,.19,2.92v7.92a.21.21,0,0,1-.23.23H195a.21.21,0,0,1-.23-.23V3.13A.21.21,0,0,1,195,2.9h2.52a.3.3,0,0,1,.27.17,23.26,23.26,0,0,0,1.11,2.16l4.49,7.41c.27.5.52,1,.73,1.41s.31.17.27-.08a17.54,17.54,0,0,1-.17-2.88v-8a.21.21,0,0,1,.23-.23h1.91a.21.21,0,0,1,.23.23Z"/><path class="cls-2" d="M212.64,16.74a1,1,0,0,1-1,1,.94.94,0,0,1-1-1,.94.94,0,0,1,1-1A1,1,0,0,1,212.64,16.74Z"/><path class="cls-2" d="M226.39,10.44a.17.17,0,0,1,.19.19v5.82c0,.13,0,.19-.15.21l-.36.13-1.34.48a7.68,7.68,0,0,1-3,.52c-3.82,0-6.11-2.83-6.11-7.43s2.29-7.45,6.11-7.45a7.94,7.94,0,0,1,3,.55l.88.31a.16.16,0,0,1,.1.23l-.31.88a.16.16,0,0,1-.23.1l-.88-.31a7,7,0,0,0-2.58-.44c-3,0-4.68,2.29-4.68,6.13s1.72,6.13,4.68,6.13a7.17,7.17,0,0,0,2.54-.42l.94-.34v-4h-2.86c-.15,0-.21-.08-.17-.21l.25-.88a.19.19,0,0,1,.21-.17Z"/><path class="cls-2" d="M242.52,10.35c0,4.58-2.31,7.43-6.07,7.43s-6.09-2.86-6.09-7.43,2.31-7.45,6.09-7.45S242.52,5.78,242.52,10.35Zm-10.73,0c0,3.84,1.72,6.13,4.66,6.13s4.64-2.29,4.64-6.13-1.7-6.13-4.64-6.13S231.79,6.51,231.79,10.35Z"/><path class="cls-2" d="M257.09,11.91c0,3.7-2,5.88-5.35,5.88s-5.35-2.18-5.35-5.88V3.32a.17.17,0,0,1,.19-.19h1a.17.17,0,0,1,.19.19v8.59c0,2.9,1.45,4.58,4,4.58s4-1.68,4-4.58V3.32a.17.17,0,0,1,.19-.19h1a.17.17,0,0,1,.19.19Z"/><path class="cls-2" d="M268.87,13.71a30.15,30.15,0,0,0-1.18,3.7.2.2,0,0,1-.21.17h-1.2a.2.2,0,0,1-.21-.17,30,30,0,0,0-1.15-3.7L260.6,3.34a.14.14,0,0,1,.15-.21h1.09a.21.21,0,0,1,.23.15L266,12.75a16.26,16.26,0,0,1,.78,2.62c0,.19.23.19.25,0a16.26,16.26,0,0,1,.78-2.62l3.93-9.47a.21.21,0,0,1,.23-.15h1.09a.14.14,0,0,1,.15.21Z"/><path class="cls-1" d="M99.52,41.62c1.75,0,2.78.91,2.78,2.42a2.24,2.24,0,0,1-1.6,2.16c-.16.07-.16.13,0,.22a2.78,2.78,0,0,1,1.15,1.39l.85,2c0,.1,0,.16-.11.16h-1.16a.17.17,0,0,1-.16-.1l-.65-1.55a2.16,2.16,0,0,0-2.25-1.63H97.5v3.14a.12.12,0,0,1-.13.13H96.28a.12.12,0,0,1-.13-.13V41.75a.12.12,0,0,1,.13-.13ZM99,45.53c1.24,0,1.9-.49,1.9-1.4a1.26,1.26,0,0,0-1.4-1.29h-2v2.7Z"/><path class="cls-1" d="M108.21,50a5,5,0,0,1-1.22.16c-1.81,0-2.83-1.18-2.83-3s1-3,2.78-3c1.44,0,2.31.72,2.31,1.91,0,.92-.56,1.45-1.76,1.63l-1.88.29a1.27,1.27,0,0,0,1.37,1,3.25,3.25,0,0,0,.95-.12l.53-.13a.12.12,0,0,1,.17.1l.24.9a.12.12,0,0,1-.1.17Zm-.92-3.41c.42-.07.65-.26.65-.58,0-.48-.37-.73-1-.73s-1.33.49-1.43,1.6Zm1-5.17c.12,0,.16.07.08.16l-1.13,1.56a.19.19,0,0,1-.16.08h-.89c-.11,0-.14-.06-.1-.16l.82-1.55a.15.15,0,0,1,.16-.1Z"/><path class="cls-1" d="M111.78,44.24a4.47,4.47,0,0,1,1.31-.18c1.62,0,2.61.84,2.61,2.29v3.51a.12.12,0,0,1-.13.13H115a.15.15,0,0,1-.16-.11l-.1-.37c-.07-.17-.14-.17-.3,0a2.11,2.11,0,0,1-1.64.64c-1.33,0-2.08-.68-2.08-1.81s.77-1.85,2.18-1.85h1.5V46.4c0-.73-.47-1.13-1.35-1.13a3.27,3.27,0,0,0-.94.12l-.43.13a.12.12,0,0,1-.17-.1l-.26-.89a.12.12,0,0,1,.1-.17Zm1.1,3.27c-.59,0-.86.28-.86.68s.32.76.9.76c.95,0,1.46-.47,1.46-1.35v-.08Z"/><path class="cls-1" d="M119.16,48.6c0,.2.08.32.24.32h.08c.08,0,.13,0,.17.07l.36.85A.12.12,0,0,1,120,50a1.46,1.46,0,0,1-.55.11,1.42,1.42,0,0,1-1.57-1.54V41.53a.12.12,0,0,1,.13-.13H119a.12.12,0,0,1,.13.13Z"/><path class="cls-1" d="M123.37,49.87a.12.12,0,0,1-.13.13h-1.07a.12.12,0,0,1-.13-.13v-4.5h-.59a.12.12,0,0,1-.13-.13v-.92a.12.12,0,0,1,.13-.13h1.79a.12.12,0,0,1,.13.13Zm0-7.76a.73.73,0,0,1-.79.82.81.81,0,0,1,0-1.62A.73.73,0,0,1,123.36,42.11Z"/><path class="cls-1" d="M126.91,47.42c-1-.25-1.46-.77-1.46-1.63,0-1.08.8-1.73,2.19-1.73a6,6,0,0,1,1.49.19l.53.13a.12.12,0,0,1,.1.17l-.25.9a.12.12,0,0,1-.17.1l-.53-.14a4.6,4.6,0,0,0-1.16-.14c-.55,0-.88.2-.88.53s.17.44.54.55l1.2.31c1,.26,1.51.8,1.51,1.67,0,1.13-.84,1.81-2.25,1.81a6.71,6.71,0,0,1-1.83-.25l-.47-.13a.12.12,0,0,1-.1-.17l.28-.9a.12.12,0,0,1,.16-.08l.43.12a6.21,6.21,0,0,0,1.54.2c.59,0,.92-.23.92-.6s-.17-.47-.56-.59Z"/><path class="cls-1" d="M135.66,50a5,5,0,0,1-1.22.16c-1.81,0-2.83-1.18-2.83-3s1-3,2.78-3c1.44,0,2.31.72,2.31,1.91,0,.92-.56,1.45-1.76,1.63l-1.88.29a1.27,1.27,0,0,0,1.37,1,3.25,3.25,0,0,0,.95-.12l.53-.13a.12.12,0,0,1,.17.1l.24.9a.12.12,0,0,1-.1.17Zm-.92-3.41c.42-.07.65-.26.65-.58,0-.48-.37-.73-1-.73s-1.33.49-1.43,1.6Z"/><path class="cls-1" d="M142.89,44.28a.14.14,0,0,1,0,.18,8.23,8.23,0,0,0-.54.89L140.7,48a4.26,4.26,0,0,1-.46.65c-.06.07,0,.13.06.13h2.4c.1,0,.14.06.11.14l-.26.94a.15.15,0,0,1-.16.11h-3.95a.15.15,0,0,1-.16-.1.16.16,0,0,1,0-.18,8,8,0,0,0,.6-.95l1.6-2.63a2.59,2.59,0,0,1,.46-.66c.07-.08,0-.13-.06-.13h-2.37a.12.12,0,0,1-.13-.13v-.92a.12.12,0,0,1,.13-.13h4.21a.2.2,0,0,1,.17.08Z"/><path class="cls-1" d="M152.15,47.17a28.12,28.12,0,0,0-.92,2.72.15.15,0,0,1-.16.11H149.8a.15.15,0,0,1-.16-.11c-.2-.77-.56-1.79-.92-2.72l-1.19-2.83c0-.1,0-.16.11-.16h1.12a.17.17,0,0,1,.16.1l.85,2a12.28,12.28,0,0,1,.58,2c0,.13.16.13.19,0a10,10,0,0,1,.58-2l.85-2a.17.17,0,0,1,.16-.1h1.12c.1,0,.14.06.11.16Z"/><path class="cls-1" d="M160.26,47.09c0,1.87-1.06,3-2.76,3s-2.77-1.18-2.77-3a2.78,2.78,0,1,1,5.53,0Zm-4.21,0c0,1.15.54,1.83,1.45,1.83s1.44-.68,1.44-1.83-.55-1.82-1.44-1.82S156.05,45.95,156.05,47.09Z"/><path class="cls-1" d="M163.51,47.42c-1-.25-1.46-.77-1.46-1.63,0-1.08.8-1.73,2.19-1.73a6,6,0,0,1,1.49.19l.53.13a.12.12,0,0,1,.1.17l-.25.9a.12.12,0,0,1-.17.1l-.53-.14a4.6,4.6,0,0,0-1.16-.14c-.55,0-.88.2-.88.53s.17.44.54.55l1.2.31c1,.26,1.51.8,1.51,1.67,0,1.13-.84,1.81-2.25,1.81a6.71,6.71,0,0,1-1.83-.25l-.47-.13a.12.12,0,0,1-.1-.17l.28-.9a.12.12,0,0,1,.16-.08l.43.12a6.21,6.21,0,0,0,1.54.2c.59,0,.92-.23.92-.6s-.17-.47-.56-.59Z"/><path class="cls-1" d="M175.26,50a4.4,4.4,0,0,1-1.12.16c-1.84,0-2.84-1.18-2.84-3a2.69,2.69,0,0,1,2.88-3,3.68,3.68,0,0,1,1,.14l.52.14a.12.12,0,0,1,.1.17l-.28.9a.12.12,0,0,1-.16.08l-.41-.11a2.73,2.73,0,0,0-.8-.13c-1.07,0-1.56.68-1.56,1.81s.52,1.85,1.54,1.85a3.54,3.54,0,0,0,.89-.13l.4-.12a.12.12,0,0,1,.17.08l.28.9a.12.12,0,0,1-.1.17Z"/><path class="cls-1" d="M183,47.09c0,1.87-1.06,3-2.76,3s-2.77-1.18-2.77-3a2.78,2.78,0,1,1,5.53,0Zm-4.21,0c0,1.15.54,1.83,1.45,1.83s1.44-.68,1.44-1.83-.55-1.82-1.44-1.82S178.75,45.95,178.75,47.09Z"/><path class="cls-1" d="M185.87,44.78c.07.14.14.13.28,0a2.15,2.15,0,0,1,1.65-.73A2.06,2.06,0,0,1,190,46.33v3.54a.12.12,0,0,1-.13.13H188.8a.12.12,0,0,1-.13-.13V46.47c0-.76-.4-1.21-1-1.21-.89,0-1.4.65-1.4,1.81v2.79a.12.12,0,0,1-.13.13H185a.12.12,0,0,1-.13-.13V44.31a.12.12,0,0,1,.13-.13h.6a.13.13,0,0,1,.14.12Z"/><path class="cls-1" d="M193.48,47.42c-1-.25-1.46-.77-1.46-1.63,0-1.08.8-1.73,2.19-1.73a6,6,0,0,1,1.49.19l.53.13a.12.12,0,0,1,.1.17l-.25.9a.12.12,0,0,1-.17.1l-.53-.14a4.6,4.6,0,0,0-1.16-.14c-.55,0-.88.2-.88.53s.17.44.54.55l1.2.31c1,.26,1.51.8,1.51,1.67,0,1.13-.84,1.81-2.25,1.81a6.71,6.71,0,0,1-1.83-.25l-.47-.13a.12.12,0,0,1-.1-.17l.28-.9a.12.12,0,0,1,.16-.08l.43.12a6.21,6.21,0,0,0,1.54.2c.59,0,.92-.23.92-.6s-.17-.47-.56-.59Z"/><path class="cls-1" d="M202.52,49.4c-.07-.14-.14-.13-.28,0a2.15,2.15,0,0,1-1.65.73,2.06,2.06,0,0,1-2.19-2.27V44.31a.12.12,0,0,1,.13-.13h1.07a.12.12,0,0,1,.13.13v3.39c0,.76.4,1.21,1,1.21.89,0,1.4-.65,1.4-1.81V44.31a.12.12,0,0,1,.13-.13h1.07a.12.12,0,0,1,.13.13v5.55a.12.12,0,0,1-.13.13h-.6a.13.13,0,0,1-.14-.12Z"/><path class="cls-1" d="M207.05,48.6c0,.2.08.32.24.32h.08c.08,0,.13,0,.17.07l.36.85a.12.12,0,0,1-.06.18,1.46,1.46,0,0,1-.55.11,1.42,1.42,0,0,1-1.57-1.54V41.53a.12.12,0,0,1,.13-.13h1.07a.12.12,0,0,1,.13.13Z"/><path class="cls-1" d="M212.51,44.18a.12.12,0,0,1,.13.13v.92a.12.12,0,0,1-.13.13h-1.34v2.91c0,.41.18.64.47.64a.89.89,0,0,0,.31,0c.08,0,.14,0,.18.06l.38.82a.13.13,0,0,1-.06.18,1.79,1.79,0,0,1-.82.2,1.67,1.67,0,0,1-1.8-1.85V45.37h-.59a.12.12,0,0,1-.13-.13v-.92a.12.12,0,0,1,.13-.13h.59V42.8a.14.14,0,0,1,.11-.14L211,42.3c.1,0,.16,0,.16.11v1.77Z"/><path class="cls-1" d="M215.14,44.24a4.47,4.47,0,0,1,1.31-.18c1.62,0,2.61.84,2.61,2.29v3.51a.12.12,0,0,1-.13.13h-.6a.15.15,0,0,1-.16-.11l-.1-.37c-.07-.17-.14-.17-.3,0a2.11,2.11,0,0,1-1.64.64c-1.33,0-2.08-.68-2.08-1.81s.77-1.85,2.18-1.85h1.5V46.4c0-.73-.47-1.13-1.36-1.13a3.27,3.27,0,0,0-.94.12l-.43.13a.12.12,0,0,1-.17-.1l-.26-.89a.12.12,0,0,1,.1-.17Zm1.1,3.27c-.59,0-.86.28-.86.68s.32.76.9.76c.95,0,1.46-.47,1.46-1.35v-.08Z"/><path class="cls-1" d="M224.23,44.18a.12.12,0,0,1,.13.13v.92a.12.12,0,0,1-.13.13h-1.34v2.91c0,.41.18.64.47.64a.89.89,0,0,0,.31,0c.08,0,.14,0,.18.06l.38.82a.13.13,0,0,1-.06.18,1.79,1.79,0,0,1-.82.2,1.67,1.67,0,0,1-1.8-1.85V45.37H221a.12.12,0,0,1-.13-.13v-.92a.12.12,0,0,1,.13-.13h.59V42.8a.14.14,0,0,1,.11-.14l1.07-.36c.1,0,.16,0,.16.11v1.77Z"/><path class="cls-1" d="M228,49.87a.12.12,0,0,1-.13.13h-1.07a.12.12,0,0,1-.13-.13v-4.5h-.59a.12.12,0,0,1-.13-.13v-.92a.12.12,0,0,1,.13-.13h1.79a.12.12,0,0,1,.13.13Zm0-7.76a.73.73,0,0,1-.79.82.81.81,0,0,1,0-1.62A.73.73,0,0,1,228,42.11Z"/><path class="cls-1" d="M235.46,47.09c0,1.87-1.06,3-2.76,3s-2.77-1.18-2.77-3a2.78,2.78,0,1,1,5.53,0Zm-4.21,0c0,1.15.54,1.83,1.45,1.83s1.44-.68,1.44-1.83-.55-1.82-1.44-1.82S231.25,45.95,231.25,47.09Z"/><path class="cls-1" d="M238.37,44.78c.07.14.14.13.28,0a2.15,2.15,0,0,1,1.65-.73,2.06,2.06,0,0,1,2.19,2.27v3.54a.12.12,0,0,1-.13.13H241.3a.12.12,0,0,1-.13-.13V46.47c0-.76-.4-1.21-1-1.21-.89,0-1.4.65-1.4,1.81v2.79a.12.12,0,0,1-.13.13h-1.07a.12.12,0,0,1-.13-.13V44.31a.12.12,0,0,1,.13-.13h.6a.13.13,0,0,1,.14.12Z"/><path class="cls-1" d="M246,47.42c-1-.25-1.46-.77-1.46-1.63,0-1.08.8-1.73,2.19-1.73a6,6,0,0,1,1.49.19l.53.13a.12.12,0,0,1,.1.17l-.25.9a.12.12,0,0,1-.17.1l-.53-.14a4.6,4.6,0,0,0-1.16-.14c-.55,0-.88.2-.88.53s.17.44.54.55l1.2.31c1,.26,1.51.8,1.51,1.67,0,1.13-.84,1.81-2.25,1.81a6.71,6.71,0,0,1-1.83-.25l-.47-.13a.12.12,0,0,1-.1-.17l.28-.9a.12.12,0,0,1,.16-.08l.43.12a6.21,6.21,0,0,0,1.54.2c.59,0,.92-.23.92-.6s-.17-.47-.56-.59Z"/><path class="cls-1" d="M257.82,50a5,5,0,0,1-1.22.16c-1.81,0-2.83-1.18-2.83-3s1-3,2.78-3c1.44,0,2.31.72,2.31,1.91,0,.92-.56,1.45-1.76,1.63l-1.88.29a1.27,1.27,0,0,0,1.37,1,3.25,3.25,0,0,0,.95-.12l.53-.13a.12.12,0,0,1,.17.1l.24.9a.12.12,0,0,1-.1.17Zm-.92-3.41c.42-.07.65-.26.65-.58,0-.48-.37-.73-1-.73s-1.33.49-1.43,1.6Z"/><path class="cls-1" d="M261.77,44.78c.07.14.14.13.28,0a2.15,2.15,0,0,1,1.65-.73,2.06,2.06,0,0,1,2.19,2.27v3.54a.12.12,0,0,1-.13.13H264.7a.12.12,0,0,1-.13-.13V46.47c0-.76-.4-1.21-1-1.21-.89,0-1.4.65-1.4,1.81v2.79A.12.12,0,0,1,262,50h-1.07a.12.12,0,0,1-.13-.13V44.31a.12.12,0,0,1,.13-.13h.6a.13.13,0,0,1,.14.12Z"/><path class="cls-1" d="M274.24,44.18a.12.12,0,0,1,.13.13v.92a.12.12,0,0,1-.13.13h-1.34v2.91c0,.41.18.64.47.64a.89.89,0,0,0,.31,0c.08,0,.14,0,.18.06l.38.82a.13.13,0,0,1-.06.18,1.79,1.79,0,0,1-.82.2,1.67,1.67,0,0,1-1.8-1.85V45.37H271a.12.12,0,0,1-.13-.13v-.92a.12.12,0,0,1,.13-.13h.59V42.8a.14.14,0,0,1,.11-.14l1.07-.36c.1,0,.16,0,.16.11v1.77Z"/><path class="cls-1" d="M281.41,47.09c0,1.87-1.06,3-2.76,3s-2.77-1.18-2.77-3a2.78,2.78,0,1,1,5.53,0Zm-4.21,0c0,1.15.54,1.83,1.45,1.83s1.44-.68,1.44-1.83-.55-1.82-1.44-1.82S277.2,45.95,277.2,47.09Z"/><path class="cls-1" d="M287.4,49.4c-.07-.14-.14-.13-.28,0a2.15,2.15,0,0,1-1.65.73,2.06,2.06,0,0,1-2.19-2.27V44.31a.12.12,0,0,1,.13-.13h1.07a.12.12,0,0,1,.13.13v3.39c0,.76.4,1.21,1,1.21.89,0,1.4-.65,1.4-1.81V44.31a.12.12,0,0,1,.13-.13h1.07a.12.12,0,0,1,.13.13v5.55a.12.12,0,0,1-.13.13h-.6a.13.13,0,0,1-.14-.12Z"/><path class="cls-1" d="M293.69,44.18a.12.12,0,0,1,.13.13v.92a.12.12,0,0,1-.13.13h-1.34v2.91c0,.41.18.64.47.64a.89.89,0,0,0,.31,0c.08,0,.14,0,.18.06l.38.82a.13.13,0,0,1-.06.18,1.79,1.79,0,0,1-.82.2,1.67,1.67,0,0,1-1.8-1.85V45.37h-.59a.12.12,0,0,1-.13-.13v-.92a.12.12,0,0,1,.13-.13H291V42.8a.14.14,0,0,1,.11-.14l1.07-.36c.1,0,.16,0,.16.11v1.77Z"/><path class="cls-1" d="M299.39,50a5,5,0,0,1-1.22.16c-1.81,0-2.83-1.18-2.83-3s1-3,2.78-3c1.44,0,2.31.72,2.31,1.91,0,.92-.56,1.45-1.76,1.63l-1.88.29a1.27,1.27,0,0,0,1.37,1,3.25,3.25,0,0,0,.95-.12l.53-.13a.12.12,0,0,1,.17.1l.24.9a.12.12,0,0,1-.1.17Zm-.92-3.41c.42-.07.65-.26.65-.58,0-.48-.37-.73-1-.73s-1.33.49-1.43,1.6Z"/><path class="cls-1" d="M306.78,47.42c-1-.25-1.46-.77-1.46-1.63,0-1.08.8-1.73,2.19-1.73a6,6,0,0,1,1.49.19l.53.13a.12.12,0,0,1,.1.17l-.25.9a.12.12,0,0,1-.17.1l-.53-.14a4.6,4.6,0,0,0-1.16-.14c-.55,0-.88.2-.88.53s.17.44.54.55l1.2.31c1,.26,1.51.8,1.51,1.67,0,1.13-.84,1.81-2.25,1.81a6.71,6.71,0,0,1-1.83-.25l-.47-.13a.12.12,0,0,1-.1-.17l.28-.9a.12.12,0,0,1,.16-.08l.43.12a6.21,6.21,0,0,0,1.54.2c.59,0,.92-.23.92-.6s-.17-.47-.56-.59Z"/><path class="cls-1" d="M313.43,49.87a.12.12,0,0,1-.13.13h-1.07a.12.12,0,0,1-.13-.13v-4.5h-.59a.12.12,0,0,1-.13-.13v-.92a.12.12,0,0,1,.13-.13h1.79a.12.12,0,0,1,.13.13Zm0-7.76a.73.73,0,0,1-.79.82.81.81,0,0,1,0-1.62A.73.73,0,0,1,313.42,42.11Z"/><path class="cls-1" d="M316.62,44.77c.07.14.14.14.29,0a2,2,0,0,1,1.56-.72,1.87,1.87,0,0,1,1.56.8c.16.17.26.13.41,0a2.11,2.11,0,0,1,3.75,1.46v3.54a.12.12,0,0,1-.13.13H323a.12.12,0,0,1-.13-.13V46.47c0-.76-.31-1.21-.95-1.21-.91,0-1.32.71-1.32,1.81v2.79a.12.12,0,0,1-.13.13h-1.08a.12.12,0,0,1-.13-.13V46.46c0-.74-.34-1.2-.95-1.2-.92,0-1.32.71-1.32,1.81v2.79a.12.12,0,0,1-.13.13h-1.07a.12.12,0,0,1-.13-.13V44.31a.12.12,0,0,1,.13-.13h.6a.13.13,0,0,1,.14.12Z"/><path class="cls-1" d="M327.34,44.79c0,.13.14.12.23,0a2.13,2.13,0,0,1,1.68-.74c1.57,0,2.52,1.16,2.52,3s-1,3-2.69,3A2.47,2.47,0,0,1,328,49.9l-.32-.14v2.69a.12.12,0,0,1-.13.13h-1.07a.12.12,0,0,1-.13-.13V44.31a.12.12,0,0,1,.13-.13h.6a.13.13,0,0,1,.14.11Zm.67,3.92a2.19,2.19,0,0,0,1,.2c.92,0,1.45-.68,1.45-1.83s-.53-1.82-1.42-1.82-1.38.74-1.38,1.79v1.5Z"/><path class="cls-1" d="M335,48.6c0,.2.08.32.24.32h.08c.08,0,.13,0,.17.07l.36.85a.12.12,0,0,1-.06.18,1.46,1.46,0,0,1-.55.11,1.42,1.42,0,0,1-1.57-1.54V41.53a.12.12,0,0,1,.13-.13h1.07a.12.12,0,0,1,.13.13Z"/><path class="cls-1" d="M339.23,49.87a.12.12,0,0,1-.13.13H338a.12.12,0,0,1-.13-.13v-4.5h-.59a.12.12,0,0,1-.13-.13v-.92a.12.12,0,0,1,.13-.13h1.79a.12.12,0,0,1,.13.13Zm0-7.76a.73.73,0,0,1-.79.82.81.81,0,0,1,0-1.62A.73.73,0,0,1,339.22,42.11Z"/><path class="cls-1" d="M345.11,50a4.4,4.4,0,0,1-1.12.16c-1.84,0-2.84-1.18-2.84-3a2.69,2.69,0,0,1,2.88-3,3.68,3.68,0,0,1,1,.14l.52.14a.12.12,0,0,1,.1.17l-.28.9a.12.12,0,0,1-.16.08l-.41-.11a2.73,2.73,0,0,0-.8-.13c-1.07,0-1.56.68-1.56,1.81s.52,1.85,1.54,1.85a3.54,3.54,0,0,0,.89-.13l.4-.12a.12.12,0,0,1,.17.08l.28.9a.12.12,0,0,1-.1.17Z"/><path class="cls-1" d="M349.45,49.87a.12.12,0,0,1-.13.13h-1.07a.12.12,0,0,1-.13-.13v-4.5h-.59a.12.12,0,0,1-.13-.13v-.92a.12.12,0,0,1,.13-.13h1.79a.12.12,0,0,1,.13.13Zm0-7.76a.73.73,0,0,1-.79.82.81.81,0,0,1,0-1.62A.73.73,0,0,1,349.44,42.11Z"/><path class="cls-1" d="M354.76,44.18a.12.12,0,0,1,.13.13v.92a.12.12,0,0,1-.13.13h-1.34v2.91c0,.41.18.64.47.64a.89.89,0,0,0,.31,0c.08,0,.14,0,.18.06l.38.82a.13.13,0,0,1-.06.18,1.79,1.79,0,0,1-.82.2,1.67,1.67,0,0,1-1.8-1.85V45.37h-.59a.12.12,0,0,1-.13-.13v-.92a.12.12,0,0,1,.13-.13h.59V42.8a.14.14,0,0,1,.11-.14l1.07-.36c.1,0,.16,0,.16.11v1.77Z"/><path class="cls-1" d="M360.46,50a5,5,0,0,1-1.22.16c-1.81,0-2.83-1.18-2.83-3s1-3,2.78-3c1.44,0,2.31.72,2.31,1.91,0,.92-.56,1.45-1.76,1.63l-1.88.29a1.27,1.27,0,0,0,1.37,1,3.25,3.25,0,0,0,.95-.12l.53-.13a.12.12,0,0,1,.17.1l.24.9a.12.12,0,0,1-.1.17Zm-.92-3.41c.42-.07.65-.26.65-.58,0-.48-.37-.73-1-.73s-1.33.49-1.43,1.6Zm1-5.17c.12,0,.16.07.08.16l-1.13,1.56a.19.19,0,0,1-.16.08h-.89c-.11,0-.14-.06-.1-.16l.82-1.55a.15.15,0,0,1,.16-.1Z"/><path class="cls-1" d="M14.44,50A14.46,14.46,0,0,1,0,35.56V14.44a14.44,14.44,0,0,1,28.88,0H24.56a10.11,10.11,0,0,0-20.23,0V35.56a10.11,10.11,0,0,0,20.23,0h4.33A14.46,14.46,0,0,1,14.44,50Z"/><circle class="cls-2" cx="26.72" cy="29.06" r="2.16"/></g></g></svg>